<svg width="64" height="64" viewBox="0 0 64 64" fill="none" xmlns="http://www.w3.org/2000/svg">
  <rect width="64" height="64" rx="12" fill="#D97706"/>
  <rect x="4" y="4" width="56" height="56" rx="8" fill="#F59E0B"/>
  <path d="M12 10 L40 10 L52 22 L52 52 L12 52 Z" fill="white" opacity="0.15"/>
  <path d="M40 10 L40 22 L52 22" fill="white" opacity="0.1"/>
  <path d="M18 26 Q18 24 20 24 L38 24 Q40 24 40 26 L40 38 Q40 40 38 40 L20 40 Q18 40 18 38 Z" fill="white" opacity="0.2" stroke="white" stroke-opacity="0.3" stroke-width="0.5"/>
  <rect x="20" y="28" width="18" height="2" rx="1" fill="white" opacity="0.8"/>
  <rect x="20" y="32" width="12" height="2" rx="1" fill="white" opacity="0.7"/>
  <rect x="20" y="36" width="15" height="2" rx="1" fill="white" opacity="0.7"/>
  <rect x="16" y="44" width="8" height="6" rx="1" fill="white" opacity="0.15"/>
  <rect x="26" y="44" width="8" height="6" rx="1" fill="white" opacity="0.15"/>
  <rect x="36" y="44" width="6" height="6" rx="1" fill="white" opacity="0.15"/>
  <text x="32" y="20" font-family="Arial, sans-serif" font-size="10" font-weight="bold" text-anchor="middle" fill="white">ZIP</text>
</svg>
