<svg width="64" height="64" viewBox="0 0 64 64" fill="none" xmlns="http://www.w3.org/2000/svg">
  <rect width="64" height="64" rx="12" fill="#B91C1C"/>
  <rect x="4" y="4" width="56" height="56" rx="8" fill="#DC2626"/>
  <path d="M12 10 L40 10 L52 22 L52 52 L12 52 Z" fill="white" opacity="0.15"/>
  <path d="M40 10 L40 22 L52 22" fill="white" opacity="0.1"/>
  <circle cx="32" cy="32" r="8" fill="white" opacity="0.2" stroke="white" stroke-opacity="0.3" stroke-width="0.5"/>
  <circle cx="32" cy="32" r="4" fill="white" opacity="0.8"/>
  <path d="M26 36 Q26 38 28 38 L36 38 Q38 38 38 36" stroke="white" stroke-width="1" fill="none" opacity="0.7"/>
  <rect x="18" y="42" width="3" height="10" rx="1.5" fill="white" opacity="0.6"/>
  <rect x="22" y="44" width="3" height="8" rx="1.5" fill="white" opacity="0.7"/>
  <rect x="26" y="40" width="3" height="12" rx="1.5" fill="white" opacity="0.8"/>
  <rect x="30" y="43" width="3" height="9" rx="1.5" fill="white" opacity="0.7"/>
  <rect x="34" y="45" width="3" height="7" rx="1.5" fill="white" opacity="0.6"/>
  <rect x="38" y="46" width="3" height="6" rx="1.5" fill="white" opacity="0.5"/>
  <rect x="42" y="47" width="3" height="5" rx="1.5" fill="white" opacity="0.4"/>
  <text x="32" y="20" font-family="Arial, sans-serif" font-size="9" font-weight="bold" text-anchor="middle" fill="white">MP3</text>
</svg>
