<svg width="64" height="64" viewBox="0 0 64 64" fill="none" xmlns="http://www.w3.org/2000/svg">
  <rect width="64" height="64" rx="12" fill="#1E40AF"/>
  <rect x="4" y="4" width="56" height="56" rx="8" fill="#2563EB"/>
  <path d="M12 10 L40 10 L52 22 L52 52 L12 52 Z" fill="white" opacity="0.15"/>
  <path d="M40 10 L40 22 L52 22" fill="white" opacity="0.1"/>
  <path d="M16 26 L18 28 L16 30" stroke="white" stroke-width="2" stroke-linecap="round" stroke-linejoin="round" opacity="0.8" fill="none"/>
  <path d="M42 26 L40 28 L42 30" stroke="white" stroke-width="2" stroke-linecap="round" stroke-linejoin="round" opacity="0.8" fill="none"/>
  <rect x="20" y="34" width="6" height="2" rx="1" fill="white" opacity="0.8"/>
  <rect x="28" y="34" width="6" height="2" rx="1" fill="white" opacity="0.7"/>
  <rect x="36" y="34" width="6" height="2" rx="1" fill="white" opacity="0.6"/>
  <rect x="16" y="38" width="10" height="2" rx="1" fill="white" opacity="0.8"/>
  <rect x="28" y="38" width="8" height="2" rx="1" fill="white" opacity="0.7"/>
  <rect x="38" y="38" width="4" height="2" rx="1" fill="white" opacity="0.6"/>
  <rect x="20" y="42" width="8" height="2" rx="1" fill="white" opacity="0.7"/>
  <rect x="30" y="42" width="10" height="2" rx="1" fill="white" opacity="0.6"/>
  <rect x="16" y="46" width="12" height="2" rx="1" fill="white" opacity="0.6"/>
  <rect x="30" y="46" width="6" height="2" rx="1" fill="white" opacity="0.5"/>
  <text x="32" y="20" font-family="Arial, sans-serif" font-size="9" font-weight="bold" text-anchor="middle" fill="white">CODE</text>
</svg>
