<svg width="64" height="64" viewBox="0 0 64 64" fill="none" xmlns="http://www.w3.org/2000/svg">
  <rect width="64" height="64" rx="12" fill="#6B21A8"/>
  <rect x="4" y="4" width="56" height="56" rx="8" fill="#7C3AED"/>
  <path d="M12 10 L40 10 L52 22 L52 52 L12 52 Z" fill="white" opacity="0.15"/>
  <path d="M40 10 L40 22 L52 22" fill="white" opacity="0.1"/>
  <rect x="16" y="26" width="26" height="18" rx="2" fill="white" opacity="0.2" stroke="white" stroke-opacity="0.3" stroke-width="0.5"/>
  <circle cx="20" cy="32" r="2.5" fill="white" opacity="0.8"/>
  <path d="M16 40 L20 36 L26 42 L30 38 L36 44 L42 32 L42 42 L16 42 Z" fill="white" opacity="0.6"/>
  <rect x="16" y="46" width="8" height="4" rx="1" fill="white" opacity="0.15"/>
  <rect x="26" y="46" width="8" height="4" rx="1" fill="white" opacity="0.15"/>
  <rect x="36" y="46" width="6" height="4" rx="1" fill="white" opacity="0.15"/>
  <text x="32" y="20" font-family="Arial, sans-serif" font-size="10" font-weight="bold" text-anchor="middle" fill="white">IMG</text>
</svg>
