<svg width="64" height="64" viewBox="0 0 64 64" fill="none" xmlns="http://www.w3.org/2000/svg">
  <rect width="64" height="64" rx="12" fill="#B91C1C"/>
  <rect x="4" y="4" width="56" height="56" rx="8" fill="#DC2626"/>
  <path d="M12 10 L40 10 L52 22 L52 52 L12 52 Z" fill="white" opacity="0.15"/>
  <path d="M40 10 L40 22 L52 22" fill="white" opacity="0.1"/>
  <rect x="16" y="26" width="26" height="12" rx="2" fill="white" opacity="0.2" stroke="white" stroke-opacity="0.3" stroke-width="0.5"/>
  <rect x="18" y="28" width="22" height="1.5" rx="0.75" fill="white" opacity="0.8"/>
  <rect x="18" y="31" width="16" height="1.5" rx="0.75" fill="white" opacity="0.7"/>
  <rect x="18" y="34" width="18" height="1.5" rx="0.75" fill="white" opacity="0.7"/>
  <rect x="16" y="41" width="26" height="8" rx="2" fill="white" opacity="0.15" stroke="white" stroke-opacity="0.3" stroke-width="0.5"/>
  <rect x="18" y="43" width="22" height="1" rx="0.5" fill="white" opacity="0.8"/>
  <rect x="18" y="45" width="16" height="1" rx="0.5" fill="white" opacity="0.7"/>
  <rect x="18" y="47" width="18" height="1" rx="0.5" fill="white" opacity="0.7"/>
  <text x="32" y="20" font-family="Arial, sans-serif" font-size="10" font-weight="bold" text-anchor="middle" fill="white">PPT</text>
</svg>
